<?xml version="1.0" encoding="utf-8" ?>
<svg baseProfile="full" height="318.89763" version="1.1" width="1240.15745" xmlns="http://www.w3.org/2000/svg" xmlns:ev="http://www.w3.org/2001/xml-events" xmlns:xlink="http://www.w3.org/1999/xlink"><defs /><rect fill="white" height="318.89763" opacity="1" stroke-width="0" width="1240.15745" x="0.0" y="0.0" /><g><g id="vlines" stroke="lightgray"><line x1="0.0" x2="0.0" y1="70.86614" y2="283.46456" /><text fill="black" font-family="Verdana" font-size="12" stroke="black" stroke-width="0" x="3.543307" y="67.322833">M 10</text><text fill="black" font-family="Verdana" font-size="16" font-weight="bold" stroke="black" stroke-width="0" x="3.543307" y="53.149605">41</text><line x1="35.43307" x2="35.43307" y1="70.86614" y2="283.46456" /><text fill="black" font-family="Verdana" font-size="12" stroke="black" stroke-width="0" x="38.976377" y="67.322833">T 11</text><line x1="70.86614" x2="70.86614" y1="70.86614" y2="283.46456" /><text fill="black" font-family="Verdana" font-size="12" stroke="black" stroke-width="0" x="74.409447" y="67.322833">W 12</text><line x1="106.29921" x2="106.29921" y1="70.86614" y2="283.46456" /><text fill="black" font-family="Verdana" font-size="12" stroke="black" stroke-width="0" x="109.842517" y="67.322833">T 13</text><line x1="141.73228" x2="141.73228" y1="70.86614" y2="283.46456" /><text fill="black" font-family="Verdana" font-size="12" stroke="black" stroke-width="0" x="145.275587" y="67.322833">F 14</text><line x1="177.16535" x2="177.16535" y1="70.86614" y2="283.46456" /><rect fill="gray" height="212.59842" opacity="0.7" stroke="lightgray" stroke-width="1" width="35.43307" x="177.16535" y="70.86614" /><text fill="black" font-family="Verdana" font-size="12" stroke="black" stroke-width="0" x="180.708657" y="67.322833">S 15</text><line x1="212.59842" x2="212.59842" y1="70.86614" y2="283.46456" /><rect fill="gray" height="212.59842" opacity="0.7" stroke="lightgray" stroke-width="1" width="35.43307" x="212.59842" y="70.86614" /><text fill="black" font-family="Verdana" font-size="12" stroke="black" stroke-width="0" x="216.141727" y="67.322833">S 16</text><line x1="248.03149000000002" x2="248.03149000000002" y1="70.86614" y2="283.46456" /><text fill="black" font-family="Verdana" font-size="12" stroke="black" stroke-width="0" x="251.574797" y="67.322833">M 17</text><text fill="black" font-family="Verdana" font-size="16" font-weight="bold" stroke="black" stroke-width="0" x="251.574797" y="53.149605">42</text><line x1="283.46456" x2="283.46456" y1="70.86614" y2="283.46456" /><text fill="black" font-family="Verdana" font-size="12" stroke="black" stroke-width="0" x="287.007867" y="67.322833">T 18</text><line x1="318.89763" x2="318.89763" y1="70.86614" y2="283.46456" /><text fill="black" font-family="Verdana" font-size="12" stroke="black" stroke-width="0" x="322.440937" y="67.322833">W 19</text><line x1="354.3307" x2="354.3307" y1="70.86614" y2="283.46456" /><text fill="black" font-family="Verdana" font-size="12" stroke="black" stroke-width="0" x="357.874007" y="67.322833">T 20</text><line x1="389.76377" x2="389.76377" y1="70.86614" y2="283.46456" /><text fill="black" font-family="Verdana" font-size="12" stroke="black" stroke-width="0" x="393.307077" y="67.322833">F 21</text><line x1="425.19684" x2="425.19684" y1="70.86614" y2="283.46456" /><rect fill="gray" height="212.59842" opacity="0.7" stroke="lightgray" stroke-width="1" width="35.43307" x="425.19684" y="70.86614" /><text fill="black" font-family="Verdana" font-size="12" stroke="black" stroke-width="0" x="428.740147" y="67.322833">S 22</text><line x1="460.62991" x2="460.62991" y1="70.86614" y2="283.46456" /><rect fill="gray" height="212.59842" opacity="0.7" stroke="lightgray" stroke-width="1" width="35.43307" x="460.62991" y="70.86614" /><text fill="black" font-family="Verdana" font-size="12" stroke="black" stroke-width="0" x="464.173217" y="67.322833">S 23</text><line x1="496.06298000000004" x2="496.06298000000004" y1="70.86614" y2="283.46456" /><text fill="black" font-family="Verdana" font-size="12" stroke="black" stroke-width="0" x="499.606287" y="67.322833">M 24</text><text fill="black" font-family="Verdana" font-size="16" font-weight="bold" stroke="black" stroke-width="0" x="499.606287" y="53.149605">43</text><line x1="531.49605" x2="531.49605" y1="70.86614" y2="283.46456" /><text fill="black" font-family="Verdana" font-size="12" stroke="black" stroke-width="0" x="535.039357" y="67.322833">T 25</text><line x1="566.92912" x2="566.92912" y1="70.86614" y2="283.46456" /><text fill="black" font-family="Verdana" font-size="12" stroke="black" stroke-width="0" x="570.472427" y="67.322833">W 26</text><line x1="602.36219" x2="602.36219" y1="70.86614" y2="283.46456" /><text fill="black" font-family="Verdana" font-size="12" stroke="black" stroke-width="0" x="605.905497" y="67.322833">T 27</text><line x1="637.79526" x2="637.79526" y1="70.86614" y2="283.46456" /><text fill="black" font-family="Verdana" font-size="12" stroke="black" stroke-width="0" x="641.338567" y="67.322833">F 28</text><line x1="673.22833" x2="673.22833" y1="70.86614" y2="283.46456" /><rect fill="gray" height="212.59842" opacity="0.7" stroke="lightgray" stroke-width="1" width="35.43307" x="673.22833" y="70.86614" /><text fill="black" font-family="Verdana" font-size="12" stroke="black" stroke-width="0" x="676.7716369999999" y="67.322833">S 29</text><line x1="708.6614" x2="708.6614" y1="70.86614" y2="283.46456" /><rect fill="gray" height="212.59842" opacity="0.7" stroke="lightgray" stroke-width="1" width="35.43307" x="708.6614" y="70.86614" /><text fill="black" font-family="Verdana" font-size="12" stroke="black" stroke-width="0" x="712.204707" y="67.322833">S 30</text><line x1="744.09447" x2="744.09447" y1="70.86614" y2="283.46456" /><text fill="black" font-family="Verdana" font-size="12" stroke="black" stroke-width="0" x="747.637777" y="67.322833">M 31</text><text fill="black" font-family="Verdana" font-size="16" font-weight="bold" stroke="black" stroke-width="0" x="747.637777" y="53.149605">44</text><line x1="779.52754" x2="779.52754" y1="70.86614" y2="283.46456" /><text fill="black" font-family="Verdana" font-size="12" stroke="black" stroke-width="0" x="783.070847" y="67.322833">T 01</text><text fill="#800000" font-family="Verdana" font-size="18" font-weight="bold" stroke="#800000" stroke-width="0" x="783.070847" y="35.43307">November</text><line x1="814.96061" x2="814.96061" y1="70.86614" y2="283.46456" /><text fill="black" font-family="Verdana" font-size="12" stroke="black" stroke-width="0" x="818.503917" y="67.322833">W 02</text><line x1="850.39368" x2="850.39368" y1="70.86614" y2="283.46456" /><text fill="black" font-family="Verdana" font-size="12" stroke="black" stroke-width="0" x="853.936987" y="67.322833">T 03</text><line x1="885.8267500000001" x2="885.8267500000001" y1="70.86614" y2="283.46456" /><text fill="black" font-family="Verdana" font-size="12" stroke="black" stroke-width="0" x="889.370057" y="67.322833">F 04</text><line x1="921.25982" x2="921.25982" y1="70.86614" y2="283.46456" /><rect fill="gray" height="212.59842" opacity="0.7" stroke="lightgray" stroke-width="1" width="35.43307" x="921.25982" y="70.86614" /><text fill="black" font-family="Verdana" font-size="12" stroke="black" stroke-width="0" x="924.803127" y="67.322833">S 05</text><line x1="956.69289" x2="956.69289" y1="70.86614" y2="283.46456" /><rect fill="gray" height="212.59842" opacity="0.7" stroke="lightgray" stroke-width="1" width="35.43307" x="956.69289" y="70.86614" /><text fill="black" font-family="Verdana" font-size="12" stroke="black" stroke-width="0" x="960.236197" y="67.322833">S 06</text><line x1="992.1259600000001" x2="992.1259600000001" y1="70.86614" y2="283.46456" /><text fill="black" font-family="Verdana" font-size="12" stroke="black" stroke-width="0" x="995.669267" y="67.322833">M 07</text><text fill="black" font-family="Verdana" font-size="16" font-weight="bold" stroke="black" stroke-width="0" x="995.669267" y="53.149605">45</text><line x1="1027.5590300000001" x2="1027.5590300000001" y1="70.86614" y2="283.46456" /><text fill="black" font-family="Verdana" font-size="12" stroke="black" stroke-width="0" x="1031.102337" y="67.322833">T 08</text><line x1="1062.9921" x2="1062.9921" y1="70.86614" y2="283.46456" /><text fill="black" font-family="Verdana" font-size="12" stroke="black" stroke-width="0" x="1066.535407" y="67.322833">W 09</text><line x1="1098.42517" x2="1098.42517" y1="70.86614" y2="283.46456" /><text fill="black" font-family="Verdana" font-size="12" stroke="black" stroke-width="0" x="1101.968477" y="67.322833">T 10</text><line x1="1133.85824" x2="1133.85824" y1="70.86614" y2="283.46456" /><text fill="black" font-family="Verdana" font-size="12" stroke="black" stroke-width="0" x="1137.401547" y="67.322833">F 11</text><line x1="1169.29131" x2="1169.29131" y1="70.86614" y2="283.46456" /><rect fill="gray" height="212.59842" opacity="0.7" stroke="lightgray" stroke-width="1" width="35.43307" x="1169.29131" y="70.86614" /><text fill="black" font-family="Verdana" font-size="12" stroke="black" stroke-width="0" x="1172.834617" y="67.322833">S 12</text><line x1="1204.72438" x2="1204.72438" y1="70.86614" y2="283.46456" /><rect fill="gray" height="212.59842" opacity="0.7" stroke="lightgray" stroke-width="1" width="35.43307" x="1204.72438" y="70.86614" /><text fill="black" font-family="Verdana" font-size="12" stroke="black" stroke-width="0" x="1208.267687" y="67.322833">S 13</text><line x1="1240.15745" x2="1240.15745" y1="70.86614" y2="283.46456" /></g><g id="hlines" stroke="lightgray"><line x1="0.0" x2="1240.15745" y1="70.86614" y2="70.86614" /><line x1="0.0" x2="1240.15745" y1="106.29921" y2="106.29921" /><line x1="0.0" x2="1240.15745" y1="141.73228" y2="141.73228" /><line x1="0.0" x2="1240.15745" y1="177.16535" y2="177.16535" /><line x1="0.0" x2="1240.15745" y1="212.59842" y2="212.59842" /><line x1="0.0" x2="1240.15745" y1="248.03149000000002" y2="248.03149000000002" /><line x1="0.0" x2="1240.15745" y1="283.46456" y2="283.46456" /></g><line stroke="black" x1="0.0" x2="1240.15745" y1="70.86614" y2="70.86614" /><line stroke="black" x1="0.0" x2="1240.15745" y1="283.46456" y2="283.46456" /></g><g><g><g><g><text fill="black" font-family="Verdana" font-size="18" stroke="black" stroke-width="0" x="31.889763" y="95.669289">Project Alpha</text><rect fill="purple" height="191.338578" opacity="0.5" stroke="lightgray" stroke-width="0" width="7.086614000000001" x="24.0944876" y="88.582675" /><g><g id="Design_widget"><rect fill="green" height="28.346456" opacity="0.85" stroke="green" stroke-width="2" width="382.677156" x="145.275587" y="109.842517" /><rect fill="#909090" height="10.629921" opacity="0.2" stroke="green" stroke-width="1" width="382.677156" x="145.275587" y="127.559052" /><text fill="black" font-family="Verdana" font-size="15" stroke="black" stroke-width="0" x="148.818894" y="124.015745">Design widget</text><text fill="purple" font-family="Verdana" font-size="10" stroke="black" stroke-width="0" x="148.818894" y="136.4173195">Farquaad</text></g><g id="Set_up_widget_production_line"><rect fill="green" height="28.346456" opacity="0.85" stroke="green" stroke-width="2" width="276.377946" x="322.440937" y="145.275587" /><rect fill="#909090" height="10.629921" opacity="0.2" stroke="green" stroke-width="1" width="276.377946" x="322.440937" y="162.992122" /><text fill="black" font-family="Verdana" font-size="15" stroke="black" stroke-width="0" x="325.984244" y="159.448815">Set up widget production line</text><text fill="purple" font-family="Verdana" font-size="10" stroke="black" stroke-width="0" x="325.984244" y="171.8503895">Zack</text></g><g id="Manufacture_widgets"><rect fill="green" height="28.346456" opacity="0.85" stroke="green" stroke-width="2" width="311.811016" x="605.905497" y="180.708657" /><rect fill="#909090" height="10.629921" opacity="0.2" stroke="green" stroke-width="1" width="311.811016" x="605.905497" y="198.425192" /><text fill="black" font-family="Verdana" font-size="15" stroke="black" stroke-width="0" x="609.448804" y="194.881885">Manufacture widgets</text><text fill="purple" font-family="Verdana" font-size="10" stroke="black" stroke-width="0" x="609.448804" y="207.2834595">Carrie</text></g><g id="Widgets_start_shipping"><polygon fill="#FF3030" opacity="0.85" points="1009.842495,219.685034 1020.472416,230.314955 1009.842495,240.944876 999.212574,230.314955" stroke="#FF3030" stroke-width="2" /><text fill="black" font-family="Verdana" font-size="15" stroke="black" stroke-width="0" x="999.212574" y="230.314955">Widgets start shipping</text></g></g></g></g></g><g><g><g><line stroke="black" stroke-dasharray="5,3" x1="524.409436" x2="602.3621899999999" y1="124.015745" y2="124.015745" /><marker id="id4" markerHeight="10" markerWidth="10" refX="5" refY="5"><circle cx="5" cy="5" fill="#000000" opacity="0.5" r="5" stroke-width="0" /></marker><line marker-end="url(#id4)" stroke="black" stroke-dasharray="5,3" x1="602.3621899999999" x2="602.3621899999999" y1="124.015745" y2="194.881885" /><line stroke="black" stroke-dasharray="5,3" x1="595.275576" x2="602.3621899999999" y1="159.448815" y2="159.448815" /><marker id="id5" markerHeight="10" markerWidth="10" refX="5" refY="5"><circle cx="5" cy="5" fill="#000000" opacity="0.5" r="5" stroke-width="0" /></marker><line marker-end="url(#id5)" stroke="black" stroke-dasharray="5,3" x1="602.3621899999999" x2="602.3621899999999" y1="159.448815" y2="194.881885" /></g><g><line stroke="black" stroke-dasharray="5,3" x1="914.173206" x2="1009.842495" y1="194.881885" y2="194.881885" /><marker id="id6" markerHeight="10" markerWidth="10" refX="5" refY="5"><circle cx="5" cy="5" fill="#000000" opacity="0.5" r="5" stroke-width="0" /></marker><line marker-end="url(#id6)" stroke="black" stroke-dasharray="5,3" x1="1009.842495" x2="1009.842495" y1="194.881885" y2="212.59842" /></g></g></g></g></svg>